<svg width="20" height="20" viewBox="0 0 20 20" fill="none" xmlns="http://www.w3.org/2000/svg">
<path d="M9.5321 4.52123C9.6321 4.52123 9.68246 4.46266 9.70781 4.37051C9.9671 2.97266 9.95067 2.93908 11.4071 2.66301C11.5071 2.64623 11.566 2.58801 11.566 2.4873C11.566 2.38694 11.5075 2.32837 11.4067 2.31158C9.95888 2.01873 10.0007 1.98515 9.70781 0.603726C9.68281 0.511941 9.63245 0.453369 9.5321 0.453369C9.43138 0.453369 9.38138 0.511941 9.35603 0.603726C9.06317 1.98515 9.11317 2.01837 7.6571 2.31158C7.56496 2.32801 7.49781 2.38658 7.49781 2.4873C7.49781 2.58766 7.56496 2.64623 7.65674 2.66301C9.11353 2.95587 9.09674 2.97266 9.35603 4.37051C9.38103 4.46266 9.43174 4.52123 9.5321 4.52123ZM5.48067 10.2802C5.6396 10.2802 5.74853 10.1798 5.76531 10.0291C6.06638 7.79408 6.14174 7.79408 8.4521 7.35051C8.60281 7.32551 8.71174 7.2248 8.71174 7.06587C8.71174 6.91515 8.60281 6.80658 8.4521 6.78123C6.14174 6.46337 6.05817 6.38801 5.76531 4.11123C5.74853 3.96051 5.6396 3.85158 5.48067 3.85158C5.32996 3.85158 5.22103 3.96051 5.20424 4.11944C4.92817 6.36265 4.81103 6.35444 2.51746 6.78123C2.36674 6.8148 2.25781 6.91515 2.25781 7.06587C2.25781 7.23337 2.36674 7.32551 2.55067 7.35051C4.82781 7.71873 4.92817 7.7773 5.20424 10.0123C5.22103 10.1798 5.32996 10.2802 5.48067 10.2802ZM11.1557 19.5466C11.3735 19.5466 11.5325 19.3873 11.5742 19.1612C12.1685 14.5744 12.8132 13.8794 17.35 13.3773C17.5842 13.3523 17.7435 13.1766 17.7435 12.9587C17.7435 12.7409 17.5842 12.5737 17.35 12.5402C12.8132 12.038 12.1685 11.3434 11.5742 6.75623C11.5325 6.53015 11.3735 6.37944 11.1557 6.37944C10.9382 6.37944 10.7792 6.53015 10.7457 6.75623C10.1514 11.3434 9.49853 12.038 4.96995 12.5402C4.7271 12.5737 4.56817 12.7412 4.56817 12.9587C4.56817 13.1766 4.7271 13.3523 4.96995 13.3773C9.48995 13.9716 10.1178 14.5827 10.7457 19.1612C10.7792 19.3873 10.9382 19.5466 11.1557 19.5466Z" fill="white"/>
</svg>
