<svg width="28" height="29" viewBox="0 0 28 29" fill="none" xmlns="http://www.w3.org/2000/svg">
<g clip-path="url(#clip0_5_1026)">
<path d="M0.599869 13.9404C0.599213 16.3113 1.21871 18.6263 2.39668 20.6668L0.487213 27.6386L7.62196 25.7679C9.59534 26.8422 11.8064 27.4051 14.0532 27.4052H14.0591C21.4764 27.4052 27.5142 21.3696 27.5174 13.951C27.5188 10.3562 26.1201 6.97582 23.5789 4.43263C21.0381 1.88966 17.659 0.488457 14.0586 0.486816C6.64043 0.486816 0.603041 6.52213 0.599979 13.9404" fill="url(#paint0_linear_5_1026)"/>
<path d="M0.117031 13.9361C0.116266 16.3924 0.757969 18.7902 1.97794 20.9038L0 28.1255L7.39058 26.1877C9.42692 27.2979 11.7196 27.8833 14.0526 27.8842H14.0586C21.742 27.8842 27.9967 21.6314 28 13.9473C28.0013 10.2233 26.5523 6.72142 23.9203 4.08713C21.288 1.45316 17.788 0.00153125 14.0586 0C6.37394 0 0.120094 6.25188 0.117031 13.9361ZM4.51839 20.5398L4.24244 20.1017C3.08241 18.2572 2.47012 16.1257 2.471 13.937C2.47341 7.55005 7.67134 2.35375 14.063 2.35375C17.1583 2.35506 20.0672 3.56169 22.2552 5.75094C24.443 7.94041 25.6469 10.8509 25.6461 13.9464C25.6433 20.3334 20.4452 25.5303 14.0586 25.5303H14.054C11.9745 25.5292 9.93497 24.9708 8.15631 23.9154L7.73303 23.6644L3.34731 24.8142L4.51839 20.5398Z" fill="url(#paint1_linear_5_1026)"/>
<path d="M10.573 8.10963C10.312 7.52961 10.0374 7.51791 9.78923 7.50774C9.58601 7.49899 9.3537 7.49964 9.1216 7.49964C8.88929 7.49964 8.51184 7.58704 8.19279 7.9354C7.87342 8.28408 6.97348 9.12671 6.97348 10.8405C6.97348 12.5544 8.22178 14.2107 8.39579 14.4433C8.57003 14.6755 10.8057 18.305 14.3463 19.7013C17.289 20.8617 17.8878 20.6309 18.5264 20.5727C19.1652 20.5147 20.5875 19.7303 20.8777 18.9169C21.1681 18.1036 21.1681 17.4064 21.081 17.2607C20.9939 17.1156 20.7616 17.0284 20.4133 16.8543C20.0648 16.68 18.3522 15.8373 18.0329 15.721C17.7136 15.6049 17.4814 15.5469 17.249 15.8957C17.0167 16.244 16.3497 17.0284 16.1463 17.2607C15.9432 17.4936 15.7399 17.5226 15.3916 17.3483C15.0431 17.1735 13.9212 16.8061 12.5902 15.6195C11.5547 14.6962 10.8555 13.556 10.6523 13.2072C10.4491 12.8589 10.6305 12.6701 10.8052 12.4966C10.9617 12.3405 11.1537 12.0898 11.328 11.8865C11.5017 11.683 11.5597 11.5379 11.6758 11.3056C11.7921 11.073 11.7339 10.8696 11.647 10.6954C11.5597 10.5211 10.8828 8.79836 10.573 8.10963Z" fill="white"/>
</g>
<defs>
<linearGradient id="paint0_linear_5_1026" x1="1352" y1="2715.67" x2="1352" y2="0.486816" gradientUnits="userSpaceOnUse">
<stop stop-color="#1FAF38"/>
<stop offset="1" stop-color="#60D669"/>
</linearGradient>
<linearGradient id="paint1_linear_5_1026" x1="1400" y1="2812.55" x2="1400" y2="0" gradientUnits="userSpaceOnUse">
<stop stop-color="#F9F9F9"/>
<stop offset="1" stop-color="white"/>
</linearGradient>
<clipPath id="clip0_5_1026">
<rect width="28" height="28.2188" fill="white"/>
</clipPath>
</defs>
</svg>
