<svg width="28" height="29" viewBox="0 0 28 29" fill="none" xmlns="http://www.w3.org/2000/svg">
<g clip-path="url(#clip0_131_1138)">
<path d="M0.600937 13.9404C0.600281 16.3113 1.21978 18.6263 2.39775 20.6668L0.488281 27.6386L7.62303 25.7679C9.59641 26.8422 11.8074 27.4051 14.0543 27.4052H14.0602C21.4775 27.4052 27.5153 21.3696 27.5185 13.951C27.5199 10.3562 26.1212 6.97582 23.58 4.43263C21.0392 1.88966 17.66 0.488457 14.0596 0.486816C6.6415 0.486816 0.604109 6.52213 0.601047 13.9404" fill="url(#paint0_linear_131_1138)"/>
<path d="M0.117031 13.9361C0.116266 16.3924 0.757969 18.7902 1.97794 20.9038L0 28.1255L7.39058 26.1877C9.42692 27.2979 11.7196 27.8833 14.0526 27.8842H14.0586C21.742 27.8842 27.9967 21.6314 28 13.9473C28.0013 10.2233 26.5523 6.72142 23.9203 4.08713C21.288 1.45316 17.788 0.00153125 14.0586 0C6.37394 0 0.120094 6.25188 0.117031 13.9361ZM4.51839 20.5398L4.24244 20.1017C3.08241 18.2572 2.47012 16.1257 2.471 13.937C2.47341 7.55005 7.67134 2.35375 14.063 2.35375C17.1583 2.35506 20.0672 3.56169 22.2552 5.75094C24.443 7.94041 25.6469 10.8509 25.6461 13.9464C25.6433 20.3334 20.4452 25.5303 14.0586 25.5303H14.054C11.9745 25.5292 9.93497 24.9708 8.15631 23.9154L7.73303 23.6644L3.34731 24.8142L4.51839 20.5398Z" fill="url(#paint1_linear_131_1138)"/>
<path d="M10.5722 8.10963C10.3112 7.52961 10.0366 7.51791 9.78841 7.50774C9.58519 7.49899 9.35287 7.49964 9.12078 7.49964C8.88847 7.49964 8.51102 7.58704 8.19197 7.9354C7.87259 8.28408 6.97266 9.12671 6.97266 10.8405C6.97266 12.5544 8.22095 14.2107 8.39497 14.4433C8.5692 14.6755 10.8048 18.305 14.3455 19.7013C17.2881 20.8617 17.887 20.6309 18.5256 20.5727C19.1644 20.5147 20.5867 19.7303 20.8768 18.9169C21.1672 18.1036 21.1672 17.4064 21.0802 17.2607C20.9931 17.1156 20.7608 17.0284 20.4124 16.8543C20.064 16.68 18.3514 15.8373 18.0321 15.721C17.7127 15.6049 17.4805 15.5469 17.2482 15.8957C17.0159 16.244 16.3488 17.0284 16.1455 17.2607C15.9424 17.4936 15.7391 17.5226 15.3908 17.3483C15.0422 17.1735 13.9204 16.8061 12.5894 15.6195C11.5538 14.6962 10.8547 13.556 10.6515 13.2072C10.4483 12.8589 10.6297 12.6701 10.8044 12.4966C10.9609 12.3405 11.1529 12.0898 11.3272 11.8865C11.5009 11.683 11.5589 11.5379 11.675 11.3056C11.7913 11.073 11.7331 10.8696 11.6461 10.6954C11.5589 10.5211 10.8819 8.79836 10.5722 8.10963Z" fill="white"/>
</g>
<defs>
<linearGradient id="paint0_linear_131_1138" x1="1352" y1="2715.67" x2="1352" y2="0.486816" gradientUnits="userSpaceOnUse">
<stop stop-color="#1FAF38"/>
<stop offset="1" stop-color="#60D669"/>
</linearGradient>
<linearGradient id="paint1_linear_131_1138" x1="1400" y1="2812.55" x2="1400" y2="0" gradientUnits="userSpaceOnUse">
<stop stop-color="#F9F9F9"/>
<stop offset="1" stop-color="white"/>
</linearGradient>
<clipPath id="clip0_131_1138">
<rect width="28" height="28.2188" fill="white"/>
</clipPath>
</defs>
</svg>
